<?xml version="1.0" encoding="UTF-8"?>
<svg width="12px" height="16px" viewBox="2 0 12 16" version="1.1" xmlns="http://www.w3.org/2000/svg">
  <path d="M9,5 L10,5 L12,5 L13,5 L13,3 L10,3 L6,3 L3,3 L3,5 L4,5 L6,5 L7,5 L9,5 Z M9,15 L9,6 L7,6 L7,15 L9,15 Z M10,15 L12,15 L12,6 L10,6 L10,15 Z M6,15 L6,6 L4,6 L4,15 L6,15 Z M5,2 L5,1 C5,0.44771525 5.44771525,0 6,0 L10,0 C10.5522847,0 11,0.44771525 11,1 L11,2 L13,2 C13.5522847,2 14,2.44771525 14,3 L14,5 C14,5.55228475 13.5522847,6 13,6 L13,15 C13,15.5522847 12.5522847,16 12,16 L4,16 C3.44771525,16 3,15.5522847 3,15 L3,6 C2.44771525,6 2,5.55228475 2,5 L2,3 C2,2.44771525 2.44771525,2 3,2 L5,2 Z M6,2 L10,2 L10,1 L6,1 L6,2 Z" />
</svg>
