<?xml version="1.0" encoding="UTF-8"?>
<svg width="16px" height="14px" viewBox="0 0 16 14" version="1.1" xmlns="http://www.w3.org/2000/svg">
  <path d="M12.4768987,3.23020795 C13.5142459,4.08553627 14.4966346,5.2554807 15.4236558,6.73445197 C15.5254481,6.89685152 15.5254481,7.10314848 15.4236558,7.26554803 C13.2513741,10.7312102 10.7750684,12.5 8,12.5 C6.71500888,12.5 5.49407661,12.1207469 4.33772557,11.369381 L2.35355321,13.3535534 C2.15829107,13.5488155 1.84170858,13.5488155 1.64644643,13.3535534 C1.45118429,13.1582912 1.45118429,12.8417088 1.64644643,12.6464466 L3.52310115,10.7697919 C2.48575394,9.91446358 1.50336532,8.74451921 0.576344193,7.26554803 C0.474551936,7.10314848 0.474551936,6.89685152 0.576344193,6.73445197 C2.74862592,3.2687898 5.22493164,1.5 8,1.5 C9.28499104,1.5 10.5059232,1.87925303 11.6622742,2.63061883 L13.6464464,0.646446609 C13.8417086,0.451184464 14.1582911,0.451184464 14.3535532,0.646446609 C14.5488154,0.841708755 14.5488154,1.15829124 14.3535532,1.35355339 L12.4768987,3.23020795 Z M10.9366649,3.35622814 C9.99180193,2.78355969 9.01304895,2.5 8,2.5 C5.68716956,2.5 3.5530989,3.97798907 1.59295716,7 C2.4404978,8.30667953 3.320556,9.32469045 4.23352228,10.0593708 L5.1968076,9.09608545 C4.75920174,8.5117952 4.5,7.7861675 4.5,7 C4.5,5.06700338 6.06700338,3.5 8,3.5 C8.7861675,3.5 9.5117952,3.75920174 10.0960854,4.1968076 L10.9366649,3.35622814 Z M11.7664775,3.94062908 L10.8031923,4.90391435 C11.2407982,5.48820463 11.5,6.2138324 11.5,7 C11.5,8.93299662 9.93299662,10.5 8,10.5 C7.2138324,10.5 6.48820463,10.2407982 5.90391435,9.80319225 L5.06333487,10.6437717 C6.00819792,11.2164403 6.98695097,11.5 8,11.5 C10.3128304,11.5 12.4469011,10.0220109 14.4070428,7 C13.5595021,5.69332038 12.6794439,4.67530941 11.7664775,3.94062908 Z M6.62130494,9.08580166 C7.01652147,9.34756159 7.49045879,9.5 8,9.5 C9.38071187,9.5 10.5,8.38071187 10.5,7 C10.5,6.49045879 10.3475616,6.01652147 10.0858017,5.62130494 L6.62130494,9.08580166 Z M5.9141982,8.37869484 L9.37869484,4.9141982 C8.98347836,4.65243835 8.50954112,4.5 8,4.5 C6.61928813,4.5 5.5,5.61928813 5.5,7 C5.5,7.50954112 5.65243835,7.98347836 5.9141982,8.37869484 Z" />
</svg>
