<?xml version="1.0" encoding="UTF-8"?>
<svg viewBox="6 2 13 19" version="1.1" xmlns="http://www.w3.org/2000/svg">
  <path d="M18,6.97981092 L14.6698029,6.97981092 C14.3001602,6.97981092 14,6.69741651 14,6.31782307 L14,3 L7,3 L7,20 L18,20 L18,6.97981092 Z M17.1986338,5.96692607 L15.0296883,3.62139184 L15.0296883,5.96692607 L17.1986338,5.96692607 Z M14.4628955,2.00002449 C14.4647865,2.00000818 14.4666846,2 14.4685898,2 C14.4805095,2 14.4922439,2.00031998 14.5037926,2.00095203 C14.8366634,2.01396983 15.152801,2.16001622 15.3861378,2.40999788 L18.6310585,5.88639202 C18.7770708,6.04282004 18.8833957,6.23217744 18.9433976,6.43742942 C18.9797918,6.52940534 19,6.6280136 19,6.72658971 C19,6.74181112 18.9995182,6.75621897 18.9985693,6.76985402 C18.9995211,6.79102055 19,6.81225346 19,6.833537 L19,19.6428571 C19,20.3923864 18.4179702,21 17.7,21 L7.3,21 C6.58202983,21 6,20.3923864 6,19.6428571 L6,3.35714286 C6,2.60761355 6.58202983,2 7.3,2 L14.4550793,2 C14.4576856,2 14.460291,2.00000817 14.4628955,2.00002449 Z M8.5,10 L16.5,10 C16.7761424,10 17,10.2238576 17,10.5 C17,10.7761424 16.7761424,11 16.5,11 L8.5,11 C8.22385763,11 8,10.7761424 8,10.5 C8,10.2238576 8.22385763,10 8.5,10 Z M8.5,14 L16.5,14 C16.7761424,14 17,14.2238576 17,14.5 C17,14.7761424 16.7761424,15 16.5,15 L8.5,15 C8.22385763,15 8,14.7761424 8,14.5 C8,14.2238576 8.22385763,14 8.5,14 Z" />
</svg>
