<?xml version="1.0" encoding="UTF-8"?>
<svg width="16px" height="14px" viewBox="0 0 16 12" version="1.1" xmlns="http://www.w3.org/2000/svg">
    <path d="M8,11.5 C5.22493164,11.5 2.74862592,9.7312102 0.576344193,6.26554803 C0.474551936,6.10314848 0.474551936,5.89685152 0.576344193,5.73445197 C2.74862592,2.2687898 5.22493164,0.5 8,0.5 C10.7750684,0.5 13.2513741,2.2687898 15.4236558,5.73445197 C15.5254481,5.89685152 15.5254481,6.10314848 15.4236558,6.26554803 C13.2513741,9.7312102 10.7750684,11.5 8,11.5 Z M8,1.5 C5.68716956,1.5 3.5530989,2.97798908 1.59295716,6 C3.5530989,9.02201093 5.68716956,10.5 8,10.5 C10.3128304,10.5 12.4469011,9.02201093 14.4070428,6 C12.4469011,2.97798907 10.3128304,1.5 8,1.5 Z M8,9.5 C6.06700338,9.5 4.5,7.93299662 4.5,6 C4.5,4.06700338 6.06700338,2.5 8,2.5 C9.93299662,2.5 11.5,4.06700338 11.5,6 C11.5,7.93299662 9.93299662,9.5 8,9.5 Z M8,8.5 C9.38071187,8.5 10.5,7.38071187 10.5,6 C10.5,4.61928813 9.38071187,3.5 8,3.5 C6.61928813,3.5 5.5,4.61928813 5.5,6 C5.5,7.38071187 6.61928813,8.5 8,8.5 Z" />
</svg>
